<?xml version="1.0" standalone="no"?>
<!DOCTYPE svg PUBLIC "-//W3C//DTD SVG 20010904//EN"
 "http://www.w3.org/TR/2001/REC-SVG-20010904/DTD/svg10.dtd">
<svg version="1.0" xmlns="http://www.w3.org/2000/svg"
 width="1263.000000pt" height="1280.000000pt" viewBox="0 0 1263.000000 1280.000000"
 preserveAspectRatio="xMidYMid meet">
<g transform="translate(0.000000,1280.000000) scale(0.100000,-0.100000)"
fill="#000000" stroke="none">
<path d="M6169 12796 c-2 -2 -85 -9 -184 -15 -446 -30 -762 -80 -1227 -196
-676 -170 -1327 -447 -1898 -808 -116 -73 -248 -181 -468 -381 -92 -83 -219
-197 -283 -253 -198 -173 -491 -495 -702 -768 -526 -685 -881 -1364 -1117
-2143 -408 -1340 -364 -2793 125 -4137 248 -682 687 -1427 1145 -1945 222
-250 625 -649 775 -768 246 -192 702 -507 850 -585 311 -165 435 -227 505
-255 41 -17 139 -57 216 -90 164 -70 436 -161 679 -227 94 -26 206 -57 250
-70 135 -40 606 -102 945 -125 91 -6 218 -15 282 -20 148 -13 325 -13 459 -1
57 6 176 15 264 21 422 30 1001 142 1310 255 55 20 151 54 213 76 497 174
1052 443 1335 646 45 33 111 77 147 98 436 259 964 728 1333 1185 43 52 109
133 147 179 78 94 275 380 410 596 109 175 253 446 332 624 33 75 86 195 118
266 95 209 187 470 235 665 14 58 39 155 55 215 30 110 106 487 134 665 33
203 69 730 70 1015 2 348 -97 1019 -214 1445 -144 525 -230 763 -425 1167
-216 446 -375 712 -649 1084 -56 75 -129 174 -162 220 -194 265 -658 732 -999
1005 -874 701 -1963 1159 -3095 1303 -283 37 -892 74 -911 57z m568 -186 c559
-46 1295 -225 1838 -447 680 -278 1365 -716 1856 -1188 86 -82 204 -195 263
-249 137 -126 286 -300 383 -445 42 -63 135 -189 205 -280 96 -122 152 -207
220 -330 50 -91 119 -213 153 -271 213 -359 438 -916 574 -1416 200 -738 257
-1471 176 -2254 -55 -528 -220 -1162 -442 -1700 -73 -178 -251 -539 -353 -719
-245 -429 -606 -897 -980 -1272 -269 -270 -442 -416 -777 -655 -1001 -716
-2207 -1135 -3376 -1172 -491 -16 -891 18 -1401 119 -582 115 -976 256 -1641
588 -183 91 -275 145 -450 262 -437 294 -710 523 -1039 867 -217 229 -273 293
-406 467 -63 83 -135 176 -160 207 -88 110 -346 532 -491 803 -26 50 -61 131
-78 181 -16 50 -43 111 -60 136 -60 89 -200 456 -274 718 -107 376 -136 509
-206 955 -39 242 -40 262 -50 620 -6 204 -8 395 -4 425 3 30 0 73 -5 94 -9 30
-8 53 4 102 8 35 19 140 24 232 10 182 75 591 128 808 105 425 149 574 212
719 12 28 33 87 46 132 13 45 44 129 70 185 25 57 66 150 90 207 24 57 90 184
145 283 55 98 118 216 139 261 21 46 45 89 55 97 9 7 48 67 86 132 39 65 83
133 98 151 16 18 45 59 64 92 20 33 74 107 121 163 48 57 101 125 118 150 102
150 255 312 565 600 344 318 479 428 642 525 42 25 120 79 174 120 106 80 550
326 822 454 165 79 208 96 275 114 25 6 101 35 170 64 152 63 200 79 310 103
47 11 138 35 202 55 138 43 528 127 718 156 338 51 945 75 1247 51z"/>
<path d="M5940 12463 c-19 -2 -127 -15 -240 -29 -686 -84 -1315 -250 -1685
-443 -60 -32 -132 -63 -160 -70 -61 -15 -174 -71 -275 -136 -41 -26 -106 -61
-145 -77 -89 -37 -154 -74 -282 -159 -56 -38 -142 -92 -190 -121 -48 -28 -117
-79 -153 -114 -36 -34 -84 -71 -108 -83 -55 -28 -254 -188 -407 -328 -266
-243 -592 -606 -717 -798 -25 -38 -84 -119 -130 -178 -81 -104 -114 -156 -305
-487 -326 -565 -584 -1263 -712 -1920 -166 -860 -140 -1790 75 -2655 174 -699
452 -1326 859 -1935 166 -249 300 -419 558 -705 201 -223 230 -251 450 -439
97 -83 206 -176 242 -207 58 -50 235 -179 385 -280 119 -80 482 -294 610 -359
74 -37 198 -93 275 -123 77 -30 172 -70 210 -90 89 -44 399 -145 625 -204 96
-25 211 -55 256 -68 44 -13 141 -31 215 -40 74 -9 197 -27 274 -40 77 -14 181
-30 230 -36 84 -10 918 -31 940 -23 5 2 136 19 290 39 154 19 338 47 409 60
130 26 295 69 329 87 10 5 59 16 110 24 79 13 265 69 567 171 41 14 140 56
220 94 80 37 189 86 243 108 53 21 171 80 262 130 91 51 178 96 193 102 25 10
72 40 365 235 65 44 153 101 195 127 110 69 168 116 300 240 64 60 144 132
177 160 134 112 545 531 683 696 35 42 80 103 100 136 20 33 68 101 107 151
154 197 477 752 574 989 18 44 64 150 101 235 38 86 80 191 94 235 14 44 52
163 85 265 33 102 65 217 71 255 7 39 22 97 35 130 13 33 30 105 40 160 9 55
27 161 41 235 26 150 71 522 80 676 3 54 6 239 6 409 0 242 -3 336 -17 430 -9
66 -21 167 -25 225 -14 191 -102 618 -189 920 -43 151 -93 311 -109 355 -234
625 -532 1185 -872 1640 -176 234 -515 613 -766 855 -355 342 -894 712 -1409
965 -718 354 -1474 556 -2265 605 -153 9 -641 12 -720 3z m885 -64 c322 -32
561 -72 909 -155 371 -87 785 -238 1141 -414 332 -165 528 -272 610 -334 39
-29 109 -78 156 -109 108 -71 216 -154 445 -343 98 -82 205 -169 237 -194 57
-44 252 -255 518 -560 232 -266 275 -322 311 -400 20 -41 79 -136 133 -210 54
-74 113 -168 132 -209 19 -40 69 -133 111 -205 188 -326 361 -744 492 -1191
85 -287 120 -433 144 -586 8 -52 24 -148 35 -214 47 -280 56 -401 55 -805 0
-597 -28 -858 -155 -1425 -66 -300 -70 -311 -145 -510 -29 -77 -62 -178 -74
-224 -24 -94 -171 -421 -327 -729 -113 -224 -305 -520 -539 -832 -173 -231
-248 -316 -493 -560 -397 -396 -779 -693 -1236 -959 -182 -107 -557 -292 -760
-376 -978 -405 -2043 -546 -3060 -405 -192 27 -256 40 -600 125 -391 97 -515
138 -873 291 -345 147 -480 213 -588 286 -44 30 -126 80 -184 112 -218 121
-408 257 -702 503 -179 150 -635 600 -688 678 -19 28 -59 82 -90 121 -31 39
-67 88 -80 110 -13 21 -53 71 -87 109 -35 39 -87 103 -115 144 -90 130 -276
451 -355 611 -41 85 -91 179 -110 207 -54 81 -207 456 -278 678 -99 312 -173
573 -185 650 -6 39 -23 120 -37 180 -16 69 -29 160 -34 245 -4 74 -14 178 -23
230 -27 168 -36 358 -32 690 7 528 47 917 136 1304 17 72 30 138 30 147 0 10
18 71 41 136 22 65 44 147 48 183 5 39 25 101 49 156 22 50 68 168 101 262 33
95 74 195 90 224 16 29 50 103 76 165 25 61 61 136 79 166 18 30 58 107 89
172 31 64 85 158 120 208 35 51 79 122 100 159 45 83 187 287 270 389 34 42
91 118 127 170 38 54 116 145 185 214 66 66 150 156 185 199 36 44 88 95 115
114 28 18 54 44 58 55 11 30 44 64 97 100 25 17 70 51 100 77 30 26 109 87
176 137 66 50 146 113 176 140 31 26 126 90 212 142 86 51 189 117 229 146 39
29 83 56 97 60 38 12 175 81 279 142 51 31 130 70 175 88 44 18 122 53 172 78
51 24 123 52 160 62 38 10 128 41 199 70 433 176 1092 312 1560 322 83 2 211
7 285 12 172 11 353 5 605 -20z"/>
<path d="M6110 12059 c-47 -4 -112 -9 -145 -13 -33 -3 -129 -11 -214 -16 -85
-6 -159 -14 -166 -20 -8 -7 -8 -26 0 -77 11 -68 12 -68 42 -65 18 2 35 -3 43
-14 14 -16 26 -126 35 -306 2 -48 8 -113 14 -145 8 -48 8 -78 2 -154 -1 -4
-17 -10 -37 -14 l-37 -6 6 -67 c4 -36 10 -69 15 -74 5 -5 50 -4 101 2 52 6
107 10 125 10 84 1 216 10 255 19 24 5 58 7 76 4 61 -10 112 45 81 88 -10 14
-12 29 -6 43 5 14 3 34 -7 56 -8 20 -12 48 -8 66 7 41 -9 54 -59 45 -27 -4
-40 -12 -42 -24 -1 -10 -10 -27 -18 -36 -11 -12 -14 -28 -10 -48 5 -23 2 -32
-13 -38 -21 -10 -149 -17 -178 -10 -30 7 -48 43 -56 115 -4 36 -10 75 -14 87
-6 19 -2 25 21 34 16 6 58 14 94 18 l65 6 2 60 c2 82 -6 89 -89 81 -81 -8
-112 4 -105 40 2 13 -2 46 -9 74 -13 50 -7 91 13 103 5 3 44 8 87 11 43 3 81
8 85 11 19 11 47 -26 56 -76 l10 -53 58 -1 c56 -1 58 0 52 22 -3 13 1 36 8 51
17 32 11 107 -10 139 -9 13 -13 32 -10 43 8 30 -17 36 -113 29z"/>
<path d="M6410 12057 c0 -3 5 -17 11 -30 9 -20 8 -30 -6 -51 -14 -21 -15 -29
-5 -41 7 -8 20 -15 29 -15 10 0 27 -10 39 -22 17 -19 21 -37 23 -113 2 -50 -1
-96 -5 -103 -4 -7 -2 -28 4 -46 7 -23 8 -40 1 -53 -5 -10 -14 -76 -19 -147
-11 -143 -20 -161 -75 -153 -35 5 -47 -20 -47 -94 0 -63 6 -66 120 -60 14 1
99 -7 190 -17 110 -12 174 -15 193 -9 19 6 32 5 42 -3 10 -9 39 -11 89 -8 53
4 79 1 88 -8 18 -18 166 -58 207 -57 18 1 44 -5 57 -13 40 -27 68 -15 80 36 7
25 15 52 18 61 8 19 -12 37 -51 48 -26 7 -28 11 -30 69 -2 51 1 65 20 86 21
25 24 25 87 16 85 -13 157 -13 165 0 3 6 19 10 34 10 41 0 121 81 121 123 0
17 8 39 17 49 16 18 20 70 14 184 -2 37 -48 111 -96 153 -36 32 -109 58 -185
67 -25 3 -70 14 -100 24 -70 23 -186 44 -204 37 -8 -3 -17 -28 -21 -57 -7 -50
-6 -53 29 -89 l36 -36 -14 -80 c-15 -86 -47 -244 -72 -365 -9 -41 -23 -90 -30
-109 -13 -32 -16 -33 -51 -28 -21 4 -42 2 -50 -4 -7 -6 -20 -8 -29 -5 -12 5
-15 14 -10 39 4 17 8 82 10 144 3 95 1 114 -13 127 -22 20 -109 17 -116 -4 -7
-26 -9 -184 -1 -200 4 -10 -2 -24 -18 -39 -23 -21 -29 -22 -115 -16 -54 5 -95
13 -101 21 -6 7 -12 34 -13 61 -2 62 10 241 17 252 3 4 7 62 10 128 7 169 8
173 61 173 24 0 47 6 52 13 4 6 8 40 9 74 1 58 0 61 -18 52 -14 -7 -24 -7 -34
2 -8 7 -38 13 -67 15 -29 1 -103 5 -164 9 -62 4 -113 5 -113 2z m1150 -302
c21 -14 45 -35 51 -47 18 -32 19 -118 2 -151 -19 -38 -70 -67 -118 -67 -47 0
-65 14 -65 48 0 13 -4 32 -10 42 -7 14 -4 31 15 68 14 28 25 61 25 75 0 28 23
57 46 57 8 0 32 -11 54 -25z"/>
<path d="M5299 11975 c-3 -2 -38 -11 -79 -20 -40 -8 -79 -20 -87 -26 -7 -6
-23 -9 -35 -6 -31 8 -58 -10 -58 -39 0 -34 36 -101 57 -109 35 -11 54 -34 73
-86 25 -67 25 -105 3 -118 -10 -5 -45 -14 -78 -21 -33 -7 -65 -14 -71 -17 -23
-8 -54 35 -54 74 0 20 -5 52 -12 70 -12 33 -11 35 20 59 36 29 41 58 17 104
-30 58 -50 58 -241 4 -28 -8 -63 -14 -78 -14 -38 0 -41 -19 -15 -95 20 -61 24
-66 46 -60 41 10 93 -65 93 -136 0 -9 12 -59 26 -110 14 -52 30 -114 35 -139
6 -25 17 -75 25 -111 21 -89 17 -112 -21 -119 -29 -5 -30 -7 -27 -50 5 -69 22
-95 57 -93 47 3 127 19 158 32 16 6 45 11 66 11 24 0 48 8 65 21 26 20 35 49
16 49 -5 0 -10 15 -10 34 0 40 -11 50 -67 65 -42 12 -43 12 -43 56 0 26 -9 64
-22 90 -21 42 -21 48 -8 73 9 16 27 29 45 32 17 4 40 12 52 18 59 32 96 2 123
-98 28 -106 26 -126 -11 -145 -21 -11 -28 -21 -25 -33 3 -9 10 -39 15 -65 5
-27 13 -53 18 -58 6 -6 29 0 62 17 41 22 56 25 74 17 17 -8 30 -7 50 3 14 8
48 17 74 21 26 3 54 10 61 16 17 13 15 82 -4 118 -14 28 -19 30 -57 27 -41 -3
-42 -2 -43 27 -1 17 -12 53 -26 80 -18 34 -24 60 -21 83 4 21 -1 41 -12 59
-10 15 -18 42 -17 60 1 19 -7 56 -18 84 -11 27 -20 63 -20 80 0 16 -6 42 -14
57 -18 35 -6 66 33 87 17 8 31 19 31 24 0 5 -11 34 -25 65 -23 52 -27 56 -58
56 -19 0 -36 -2 -38 -5z"/>
<path d="M8294 11648 c-9 -17 -20 -45 -25 -60 -7 -25 -4 -30 22 -43 16 -9 36
-26 45 -40 15 -23 14 -28 -8 -77 -14 -29 -31 -73 -38 -98 -7 -25 -19 -52 -26
-60 -6 -8 -15 -31 -19 -50 -4 -19 -11 -40 -16 -46 -5 -6 -25 -51 -45 -100 -46
-116 -57 -127 -110 -119 l-42 6 -33 -57 c-36 -64 -33 -83 17 -97 16 -5 56 -22
89 -38 33 -16 68 -29 78 -29 11 0 31 -9 47 -20 44 -31 79 -41 101 -30 10 6 19
17 19 24 0 7 11 23 25 36 33 31 32 43 -11 78 -19 16 -35 38 -35 48 -1 45 16
110 37 151 13 24 24 54 24 67 0 13 14 41 31 62 24 31 30 46 26 70 -4 23 2 42
24 75 16 24 29 56 29 71 0 18 8 33 24 43 23 15 27 15 66 -5 45 -23 61 -20 53
10 -4 13 2 29 15 43 30 33 38 67 15 67 -10 0 -38 14 -62 30 -24 17 -56 30 -71
30 -15 0 -39 9 -52 20 -22 16 -152 70 -171 70 -4 0 -14 -14 -23 -32z"/>
<path d="M3925 11534 c-37 -13 -83 -35 -283 -132 -40 -19 -79 -44 -87 -55 -9
-13 -20 -17 -34 -12 -37 11 -23 -30 32 -95 27 -31 35 -32 69 -8 14 10 22 6 52
-26 19 -21 32 -44 30 -51 -3 -7 4 -31 15 -54 12 -22 21 -47 21 -56 0 -8 18
-35 40 -59 30 -32 40 -52 40 -76 0 -36 51 -136 83 -161 19 -16 20 -20 8 -58
-8 -28 -20 -45 -36 -51 -35 -13 -38 -25 -15 -67 11 -21 20 -43 20 -49 0 -6 7
-17 15 -24 11 -9 25 -7 67 13 29 13 76 33 103 43 28 10 72 33 100 51 27 18 55
33 62 33 16 0 16 1 -1 47 -8 21 -17 51 -21 66 -6 28 -7 28 -59 22 -52 -7 -54
-6 -63 22 -6 15 -25 45 -42 67 -34 43 -42 98 -18 131 19 25 55 14 112 -35 25
-22 50 -40 55 -40 5 0 29 -19 54 -42 24 -24 70 -67 100 -97 42 -39 61 -51 74
-46 9 4 34 11 56 15 49 10 120 60 124 87 2 14 -11 36 -37 63 -35 37 -43 41
-71 35 -35 -8 -78 16 -140 77 -19 19 -57 47 -83 62 -26 15 -47 30 -47 32 0 3
6 20 14 38 7 18 17 64 21 103 6 59 4 75 -14 106 -93 167 -195 225 -316 181z
m104 -209 c35 -41 42 -95 15 -133 -18 -26 -84 -62 -113 -62 -25 0 -51 36 -51
70 0 14 -11 45 -25 69 -30 52 -31 61 -6 61 10 0 21 7 25 15 4 11 21 15 65 15
55 0 61 -2 90 -35z"/>
<path d="M8828 11379 c-61 -34 -138 -135 -138 -181 0 -13 -4 -29 -9 -37 -6
-10 -4 -25 6 -44 11 -22 12 -36 5 -51 -10 -23 -1 -47 46 -117 12 -19 25 -45
28 -59 3 -14 12 -43 20 -65 23 -65 18 -97 -19 -133 -54 -52 -101 -41 -137 33
-21 42 -21 47 -6 64 9 10 16 26 16 35 0 24 -66 88 -86 84 -9 -2 -27 -22 -39
-46 -13 -24 -30 -51 -38 -60 -9 -9 -28 -48 -43 -85 -32 -81 -28 -89 54 -110
42 -11 63 -23 96 -60 24 -25 56 -49 72 -52 16 -4 44 -11 62 -15 19 -5 41 -6
50 -3 58 22 198 162 188 189 -3 8 0 25 8 37 24 38 28 93 11 142 -8 25 -15 58
-15 73 0 17 -19 54 -51 97 -65 90 -72 107 -59 156 13 47 58 76 91 59 33 -18
59 -71 59 -122 0 -39 5 -50 31 -72 17 -14 34 -26 37 -26 22 1 102 108 95 127
-3 8 0 19 7 23 10 6 39 70 40 88 0 1 -26 14 -57 28 -32 14 -71 38 -88 54 -16
16 -50 35 -75 44 -49 16 -138 19 -162 5z"/>
<path d="M3250 11184 c-36 -18 -78 -45 -95 -58 -29 -23 -29 -25 -12 -43 9 -11
17 -23 17 -28 0 -5 8 -25 18 -46 15 -33 20 -36 48 -32 30 5 35 0 90 -72 33
-43 66 -88 75 -101 8 -13 27 -34 41 -47 15 -14 31 -40 36 -58 5 -19 26 -59 46
-89 66 -100 68 -153 8 -200 -52 -41 -90 -21 -177 93 -66 87 -99 129 -142 181
-18 22 -33 47 -33 57 0 9 -6 19 -14 22 -7 3 -16 21 -20 40 -4 19 -13 40 -21
47 -19 16 -19 34 0 50 22 19 19 33 -22 84 -24 29 -46 46 -60 46 -12 0 -50 -23
-85 -51 -35 -28 -80 -59 -100 -70 -43 -22 -51 -32 -55 -73 -2 -19 6 -43 22
-67 25 -38 25 -38 53 -22 16 9 36 14 45 10 8 -3 35 -34 58 -69 23 -35 62 -85
86 -113 24 -27 43 -55 43 -60 0 -6 13 -24 29 -39 16 -16 45 -58 63 -93 38 -75
66 -102 152 -145 55 -28 63 -29 94 -18 25 9 36 9 47 0 17 -14 18 -13 118 63
42 33 77 65 77 72 0 7 7 19 16 26 11 9 14 23 10 47 -3 19 0 42 6 52 10 15 7
26 -15 57 -15 21 -30 54 -33 73 -10 50 -18 64 -103 169 -109 134 -106 131
-136 186 -41 76 -47 112 -23 134 19 18 19 20 3 52 -19 39 -53 69 -75 68 -8 0
-44 -16 -80 -35z"/>
<path d="M9634 10922 c-11 -15 -29 -42 -39 -59 l-19 -33 27 -28 c31 -32 34
-57 9 -71 -9 -5 -64 -66 -122 -137 -174 -211 -221 -264 -234 -264 -7 0 -28 5
-46 12 -26 9 -35 9 -38 -1 -2 -6 -17 -18 -32 -26 -48 -25 -47 -50 1 -103 24
-26 72 -73 106 -105 60 -54 65 -56 86 -42 12 8 35 31 51 51 30 37 29 47 -6 96
-10 14 -10 22 0 38 6 11 12 26 12 33 0 7 52 65 115 130 63 64 115 121 115 127
0 15 30 12 36 -3 3 -8 -4 -46 -14 -85 -11 -39 -17 -83 -14 -97 2 -15 -2 -40
-11 -58 -21 -44 -58 -162 -68 -219 -5 -27 -13 -69 -18 -95 -4 -27 -12 -56 -16
-66 -6 -14 4 -30 41 -68 26 -27 54 -49 61 -49 27 0 143 133 143 164 0 9 11 21
24 27 14 7 27 21 30 33 3 13 47 65 98 117 51 53 112 121 136 153 47 63 37 60
130 40 24 -5 34 0 60 30 18 20 32 43 32 50 0 8 -15 26 -32 41 -18 15 -68 61
-112 101 -43 41 -84 74 -91 74 -7 0 -28 -24 -48 -54 l-36 -54 20 -36 c24 -46
24 -52 -6 -84 -34 -37 -95 -120 -95 -130 0 -5 -14 -21 -31 -38 l-31 -29 -19
24 c-13 16 -18 32 -14 45 4 12 10 47 15 79 4 31 15 69 25 83 10 15 14 35 11
48 -3 13 1 31 9 42 8 10 15 41 15 67 0 32 7 57 20 75 33 44 12 84 -101 191
-54 50 -101 91 -105 90 -5 0 -18 -12 -30 -27z"/>
<path d="M5915 10744 c-272 -32 -387 -51 -474 -80 -40 -14 -119 -34 -176 -44
-131 -26 -297 -78 -455 -144 -69 -29 -152 -63 -185 -76 -89 -34 -250 -116
-335 -170 -41 -26 -113 -69 -160 -95 -134 -75 -392 -258 -555 -395 -256 -213
-351 -313 -427 -447 -17 -29 -35 -53 -42 -53 -42 0 -156 -130 -178 -201 -16
-54 -3 -67 52 -50 56 17 92 51 229 220 166 204 392 423 556 538 72 49 155 106
185 125 30 20 64 46 75 58 35 40 140 109 231 153 49 23 115 60 148 81 32 21
121 65 196 96 76 32 160 70 187 83 110 56 583 203 713 222 25 4 95 18 155 32
61 14 146 26 190 28 44 2 112 8 150 15 139 22 789 15 900 -10 22 -5 101 -18
175 -30 74 -11 167 -29 205 -40 39 -11 140 -40 225 -64 85 -25 184 -52 220
-61 233 -60 809 -358 1064 -552 66 -51 171 -131 231 -177 67 -51 182 -157 296
-273 331 -337 507 -569 734 -963 66 -116 235 -501 278 -635 41 -128 92 -311
145 -520 11 -44 27 -105 36 -135 9 -32 19 -134 24 -242 8 -166 12 -192 33
-234 13 -27 36 -57 52 -68 44 -32 52 -14 51 122 -1 92 -10 168 -43 352 -52
285 -66 346 -131 576 -53 182 -213 600 -255 665 -13 20 -50 90 -83 156 -33 65
-76 140 -96 166 -19 25 -49 72 -65 104 -48 93 -100 164 -252 346 -290 343
-566 618 -760 754 -41 29 -117 84 -169 122 -139 103 -478 296 -675 386 -285
131 -612 233 -985 309 -378 77 -848 96 -1235 50z"/>
<path d="M2453 10566 c-81 -26 -193 -103 -193 -131 0 -6 -12 -20 -28 -32 -33
-24 -72 -140 -73 -218 -1 -64 24 -177 48 -214 52 -82 74 -111 83 -111 6 0 15
-11 21 -24 12 -25 132 -122 185 -149 44 -22 127 -37 211 -37 66 0 82 4 119 28
24 15 44 30 44 35 0 4 10 7 21 7 20 0 99 68 99 85 0 4 16 28 36 52 27 33 34
50 30 67 -3 14 0 28 8 35 23 19 29 92 11 134 -8 20 -15 50 -15 67 0 43 -28 93
-105 185 -89 106 -179 183 -229 196 -23 6 -52 15 -64 20 -43 17 -164 20 -209
5z m152 -195 c17 -6 43 -13 58 -16 33 -7 146 -120 185 -185 22 -38 27 -59 30
-141 4 -96 4 -96 -27 -132 -22 -24 -49 -41 -87 -53 -55 -17 -57 -17 -117 5
-74 26 -133 60 -167 95 -66 68 -78 83 -89 103 -6 12 -11 34 -11 48 0 15 -12
48 -27 75 -23 42 -25 51 -14 76 15 39 98 124 134 139 29 12 72 8 132 -14z"/>
<path d="M6209 10575 c-3 -2 -77 -9 -164 -15 -88 -6 -209 -20 -270 -31 -159
-29 -342 -67 -405 -85 -30 -8 -86 -22 -124 -30 -39 -9 -116 -31 -173 -49 -107
-36 -430 -162 -448 -175 -5 -5 -88 -49 -184 -100 -158 -83 -449 -270 -606
-389 -99 -75 -312 -270 -442 -403 -112 -117 -293 -332 -293 -350 0 -14 41 -9
69 8 15 9 45 41 67 73 21 31 60 76 85 101 25 25 54 60 63 78 27 53 337 349
448 429 55 39 110 80 122 91 11 11 44 31 71 45 28 14 86 53 130 87 44 34 119
82 166 105 47 24 109 57 138 74 106 63 290 151 387 186 461 167 669 221 1059
271 187 24 221 25 515 21 286 -3 336 -7 540 -35 274 -39 274 -39 535 -119 249
-77 318 -103 575 -218 261 -117 248 -110 475 -258 229 -150 419 -294 549 -417
229 -218 622 -675 686 -800 15 -30 75 -137 133 -238 155 -269 265 -540 361
-889 70 -257 102 -415 127 -633 26 -219 26 -217 45 -224 39 -15 40 -3 15 264
-9 102 -80 443 -122 594 -52 184 -137 425 -191 541 -130 280 -158 336 -195
391 -22 32 -58 94 -81 137 -52 97 -105 172 -218 307 -48 57 -114 141 -145 186
-61 85 -321 348 -513 518 -107 95 -316 242 -546 383 -295 182 -793 380 -1150
458 -91 19 -192 42 -225 50 -133 31 -845 81 -866 60z"/>
<path d="M10349 10242 l-42 -38 14 -39 14 -38 -90 -84 c-49 -47 -106 -96 -125
-108 -19 -13 -66 -53 -105 -90 -38 -37 -83 -74 -98 -82 -26 -13 -31 -12 -63 8
l-36 22 -44 -44 c-24 -24 -44 -52 -44 -62 0 -10 37 -60 83 -111 45 -51 133
-152 195 -224 63 -72 121 -133 129 -136 15 -6 99 63 131 106 7 10 17 18 22 18
10 0 60 47 60 57 0 14 -73 93 -86 93 -8 0 -24 -11 -36 -25 -29 -33 -72 -33
-101 0 -12 14 -39 43 -59 64 -21 21 -38 47 -38 59 0 24 124 142 150 142 9 0
40 -27 69 -60 29 -33 58 -60 64 -60 19 0 107 84 107 101 0 9 -22 40 -50 69
-27 29 -50 61 -50 70 0 10 25 41 56 70 49 46 59 52 86 46 35 -7 103 -62 113
-91 3 -11 11 -30 17 -43 10 -20 7 -27 -25 -60 -20 -21 -37 -47 -37 -57 1 -11
16 -37 34 -59 24 -28 38 -37 52 -32 10 3 57 43 103 87 100 96 104 74 -44 241
-55 61 -120 140 -145 174 -47 64 -110 136 -129 148 -6 4 -29 -10 -52 -32z"/>
<path d="M6590 10238 c0 -12 -7 -42 -16 -65 -14 -36 -26 -48 -75 -75 -33 -17
-59 -35 -59 -39 0 -5 18 -16 40 -25 60 -24 87 -62 95 -134 4 -33 10 -60 15
-60 4 0 27 18 50 41 50 48 90 65 119 50 24 -13 58 -14 65 -3 3 5 -4 35 -16 67
-20 56 -20 60 -3 91 9 18 14 37 11 43 -4 6 -2 20 4 31 10 19 8 20 -49 14 l-59
-7 -50 47 c-54 51 -72 57 -72 24z"/>
<path d="M5809 10188 c-13 -58 -17 -64 -69 -100 -30 -21 -55 -43 -55 -50 0 -7
14 -16 32 -21 50 -15 85 -58 90 -114 7 -78 9 -79 56 -41 63 52 85 61 133 54
61 -8 68 6 42 82 -20 58 -21 62 -5 80 9 10 17 30 17 43 0 14 6 31 13 38 10 10
0 11 -54 6 l-66 -7 -52 46 c-28 25 -55 46 -60 46 -4 0 -14 -28 -22 -62z"/>
<path d="M1886 10064 c-40 -51 -136 -194 -136 -204 0 -4 22 -26 48 -48 35 -29
59 -41 88 -44 36 -3 41 -7 66 -58 15 -30 26 -66 25 -80 -2 -22 -6 -25 -42 -24
-73 2 -125 22 -143 56 -25 47 -92 118 -112 118 -25 0 -220 -251 -220 -284 0
-20 59 -58 99 -63 32 -4 38 -2 49 21 9 21 17 25 39 21 15 -3 69 -12 118 -20
156 -25 259 -46 295 -61 49 -21 160 -127 160 -154 0 -11 -7 -32 -16 -46 -16
-24 -16 -25 37 -74 30 -28 59 -50 64 -50 10 1 55 65 55 78 0 4 41 48 90 97 53
53 90 98 90 109 0 24 -77 106 -99 106 -8 0 -32 -16 -52 -36 l-38 -37 -105 97
c-108 101 -138 144 -134 194 1 18 -8 41 -24 63 -28 37 -48 86 -67 163 -10 41
-9 51 4 66 8 9 15 24 15 32 0 21 -85 98 -107 98 -10 0 -31 -16 -47 -36z"/>
<path d="M7347 10093 c-2 -5 -7 -21 -11 -38 -15 -69 -27 -84 -77 -100 -33 -11
-49 -22 -49 -34 0 -20 19 -41 37 -41 7 0 30 -12 52 -27 38 -27 39 -30 34 -70
-4 -27 -1 -48 7 -58 11 -13 16 -12 40 8 82 65 71 62 150 47 29 -6 55 -8 58 -6
2 3 -10 31 -27 62 -28 52 -30 62 -20 91 6 18 20 38 30 44 13 6 19 18 17 32 -3
20 -10 22 -72 25 -62 3 -73 6 -109 37 -41 36 -53 41 -60 28z"/>
<path d="M5067 10053 c-2 -4 -5 -19 -5 -33 0 -14 -7 -42 -15 -63 -13 -30 -27
-43 -67 -60 -61 -27 -61 -42 3 -82 47 -30 54 -43 72 -127 3 -16 12 -28 19 -28
17 0 76 54 76 70 0 13 50 8 128 -12 23 -6 45 -8 48 -5 3 3 -9 25 -26 48 -28
40 -31 48 -25 94 4 27 13 60 21 72 27 43 20 49 -61 49 l-74 -1 -44 43 c-25 24
-47 40 -50 35z"/>
<path d="M8047 9804 c-3 -4 -9 -33 -13 -65 l-6 -57 -59 -32 c-33 -17 -59 -35
-59 -40 0 -6 17 -20 38 -34 52 -32 60 -44 75 -111 7 -32 18 -60 24 -62 5 -2
25 11 44 29 45 43 84 58 125 45 50 -15 68 -4 61 40 -4 21 -16 50 -28 66 l-21
29 30 27 c36 34 50 70 31 82 -8 5 -40 7 -72 3 l-57 -6 -46 46 c-45 46 -55 52
-67 40z"/>
<path d="M4378 9724 c-3 -5 -8 -29 -12 -54 -9 -56 -19 -69 -84 -109 -28 -18
-49 -37 -46 -42 3 -5 27 -20 53 -33 62 -32 69 -42 73 -106 2 -29 8 -55 13 -57
6 -1 34 15 63 37 49 38 80 48 95 33 4 -3 29 -7 56 -8 l50 -2 -20 36 c-11 20
-29 50 -40 67 l-20 32 36 46 c34 45 43 70 27 80 -4 2 -39 1 -77 -4 l-70 -9
-46 51 c-25 29 -48 48 -51 42z"/>
<path d="M10857 9615 c-40 -27 -40 -27 -41 -94 -1 -42 -4 -46 -61 -87 -33 -23
-70 -45 -82 -48 -23 -6 -181 -112 -218 -147 -27 -24 -86 -48 -105 -41 -8 2
-25 14 -37 25 -19 17 -26 18 -51 8 -43 -18 -85 -65 -78 -88 3 -10 22 -36 41
-57 19 -22 35 -48 35 -58 0 -22 94 -170 143 -225 18 -21 49 -71 67 -110 18
-40 39 -73 47 -73 19 0 70 27 80 43 13 21 96 84 121 91 29 9 28 25 -5 69 -37
48 -49 51 -89 26 -20 -12 -42 -18 -53 -14 -20 6 -101 142 -101 169 0 8 16 27
35 43 19 15 50 40 69 56 18 15 41 27 49 27 8 0 37 -27 64 -59 26 -33 53 -62
60 -65 15 -6 103 61 103 79 0 8 -13 37 -30 65 -16 28 -30 55 -30 60 0 17 114
110 135 110 12 0 29 -8 38 -17 23 -26 87 -143 87 -159 0 -7 -18 -24 -40 -36
-49 -28 -51 -51 -9 -95 50 -55 87 -47 192 41 38 31 47 44 47 71 0 44 -38 112
-126 227 -41 53 -74 101 -74 106 0 14 -53 114 -80 150 -29 39 -53 40 -103 7z"/>
<path d="M8677 9354 c-3 -11 -8 -33 -12 -50 -7 -35 -28 -57 -93 -99 l-43 -28
28 -23 c15 -13 37 -23 49 -24 35 0 54 -31 54 -86 0 -82 28 -95 75 -34 17 21
35 41 41 43 10 5 62 -3 117 -18 35 -9 35 1 -4 64 -27 42 -30 53 -19 66 7 9 13
29 12 45 0 16 6 31 14 34 8 3 14 17 14 32 0 26 0 26 -59 19 -66 -8 -87 0 -138
47 -28 27 -32 28 -36 12z"/>
<path d="M3770 9274 c-6 -14 -10 -34 -10 -44 0 -43 -19 -66 -79 -94 -33 -17
-61 -34 -61 -38 0 -5 24 -20 54 -33 30 -13 57 -29 61 -34 3 -6 10 -36 15 -68
5 -31 16 -63 24 -71 13 -13 18 -11 44 15 16 16 32 38 34 49 3 16 11 19 53 16
28 -2 60 -8 72 -14 34 -17 38 -4 17 57 -18 53 -18 58 -1 104 9 27 17 60 17 75
0 25 -2 26 -63 26 -56 0 -68 4 -105 32 -23 18 -42 36 -42 40 0 18 -21 6 -30
-18z"/>
<path d="M1265 9043 c-6 -28 -27 -99 -64 -208 -11 -33 -48 -150 -81 -260 -34
-110 -106 -339 -160 -510 -97 -308 -195 -627 -285 -925 -25 -85 -50 -168 -56
-183 -12 -41 4 -64 54 -77 23 -6 87 -24 142 -41 55 -17 129 -39 165 -49 36
-11 119 -35 185 -55 262 -79 377 -53 500 115 19 26 35 59 35 72 0 13 14 43 30
65 19 26 30 52 29 70 -1 15 7 44 19 63 11 19 27 60 36 90 8 30 22 73 30 95 8
22 15 50 16 61 0 12 6 27 14 33 8 6 17 33 21 59 9 63 32 145 62 215 13 32 22
63 20 70 -2 7 4 29 14 49 11 21 19 49 19 63 0 14 7 42 15 62 8 19 15 46 15 60
0 13 11 46 25 73 14 27 25 62 25 77 0 14 9 45 20 68 24 50 36 112 46 230 3 50
10 96 14 104 9 17 -15 111 -40 161 -25 49 -129 144 -192 176 -88 45 -594 204
-648 204 -13 0 -21 -8 -25 -27z m393 -496 c28 -30 44 -83 37 -122 -3 -16 -17
-61 -30 -100 -25 -75 -182 -587 -221 -720 -49 -173 -142 -419 -164 -437 -28
-23 -68 -23 -92 -1 -23 21 -23 48 0 81 11 15 24 50 30 77 5 28 24 88 41 135
17 47 30 98 31 113 0 16 8 40 19 53 10 13 21 49 25 81 3 32 15 72 26 88 11 17
20 40 20 53 0 13 5 33 12 45 6 12 11 37 9 54 -1 19 9 54 24 82 14 28 25 62 25
76 0 14 7 37 16 51 19 29 54 142 60 197 2 21 15 59 28 85 13 26 26 60 30 77
15 59 39 69 74 32z"/>
<path d="M11288 8910 c-51 -32 -54 -39 -37 -71 22 -41 -13 -74 -126 -119 -33
-13 -65 -27 -71 -32 -7 -5 -54 -26 -105 -47 -52 -21 -117 -49 -146 -62 l-52
-22 -41 37 c-45 41 -59 42 -127 9 -40 -18 -40 -29 -8 -93 14 -27 25 -56 25
-64 0 -8 15 -45 34 -82 19 -38 49 -104 67 -148 39 -95 122 -189 179 -200 19
-4 55 -14 80 -22 52 -16 138 -8 252 24 56 16 84 33 162 96 118 96 158 150 179
241 13 61 13 75 1 110 -7 22 -14 53 -14 68 0 16 -12 49 -27 75 -30 50 -49 97
-63 150 -5 19 -17 44 -28 55 -12 12 -29 44 -39 72 -10 27 -25 51 -33 52 -8 2
-36 -11 -62 -27z m55 -322 c23 -18 47 -92 47 -148 0 -36 -7 -56 -30 -88 -34
-47 -96 -96 -155 -123 -59 -26 -200 -52 -241 -44 -55 10 -154 110 -154 154 0
19 133 99 185 112 28 7 72 27 99 46 26 18 58 33 70 33 12 0 51 15 86 34 76 41
71 40 93 24z"/>
<path d="M9180 8784 c-6 -14 -10 -41 -10 -60 0 -34 -3 -37 -66 -65 -74 -34
-74 -43 0 -81 49 -25 52 -29 61 -86 4 -24 9 -51 12 -58 8 -21 41 -17 53 6 6
11 15 20 21 20 5 0 23 10 40 22 27 20 33 21 76 10 64 -17 74 -4 34 46 -38 48
-38 61 -5 113 14 22 24 50 22 62 -3 21 -8 22 -71 19 -67 -3 -67 -3 -108 37
-22 23 -42 41 -45 41 -2 0 -9 -12 -14 -26z"/>
<path d="M2674 8631 c-131 -37 -254 -142 -319 -271 -49 -98 -128 -315 -205
-565 -33 -110 -70 -223 -80 -250 -11 -28 -20 -58 -20 -68 0 -15 -36 -138 -85
-287 -99 -305 -74 -561 69 -702 53 -52 155 -105 264 -138 60 -18 90 -21 160
-18 178 10 357 117 398 240 9 27 29 64 44 81 15 18 37 61 49 97 11 36 35 103
52 150 17 47 35 102 40 122 5 21 20 66 33 100 31 79 52 152 72 247 8 41 23 95
33 120 34 88 61 176 61 201 0 15 4 30 9 35 11 12 51 168 51 199 0 12 6 31 14
42 12 16 14 53 12 170 -2 82 -8 162 -15 177 -15 39 -121 176 -165 215 -63 55
-142 86 -282 111 -80 15 -117 13 -190 -8z m194 -393 c35 -39 36 -69 4 -164
-17 -49 -44 -141 -62 -204 -31 -114 -78 -264 -232 -745 -102 -319 -106 -330
-135 -361 -29 -32 -62 -29 -82 8 -13 22 -13 35 -4 75 18 75 64 227 73 238 4 6
10 26 12 45 3 19 15 58 26 85 11 28 28 86 37 130 10 44 26 97 36 118 11 21 17
43 13 48 -3 5 8 39 25 75 17 37 31 79 31 95 0 15 4 30 9 33 5 3 12 27 16 53 3
27 13 58 21 70 8 12 14 33 14 45 0 13 11 47 25 76 14 30 25 65 25 79 0 13 9
41 19 61 11 20 25 56 32 79 13 45 42 83 63 83 7 0 22 -10 34 -22z"/>
<path d="M3591 8253 c-18 -60 -45 -148 -61 -198 -16 -49 -54 -173 -85 -275
-63 -206 -120 -390 -253 -810 -50 -157 -98 -314 -107 -350 -19 -77 -46 -165
-86 -276 -36 -100 -38 -141 -6 -153 36 -14 249 -79 283 -86 61 -12 95 45 124
205 5 25 18 66 30 93 11 26 18 51 15 56 -3 6 3 29 14 53 29 67 57 144 87 248
15 52 31 99 35 104 4 4 13 -2 19 -14 9 -17 9 -53 1 -154 -17 -201 -30 -388
-37 -526 -6 -118 -5 -126 14 -144 24 -21 289 -106 332 -106 41 0 55 20 75 102
10 40 42 147 72 238 30 91 63 197 73 235 24 94 163 551 221 727 11 32 19 67
19 78 0 12 6 33 14 48 7 15 19 52 26 82 7 30 20 73 30 95 10 22 27 81 39 130
21 95 50 188 83 268 10 27 20 74 21 105 l2 56 -35 9 c-19 6 -83 25 -141 43
-58 19 -118 34 -132 34 -32 0 -53 -28 -73 -100 -8 -30 -37 -122 -64 -205 -26
-82 -69 -216 -94 -297 -72 -230 -88 -216 -80 71 3 113 8 209 11 214 3 6 7 71
9 146 1 75 3 141 4 146 1 6 2 33 1 61 l-1 50 -112 37 c-136 43 -219 67 -240
67 -10 0 -25 -33 -47 -107z"/>
<path d="M9575 8123 c-9 -70 -9 -70 -77 -104 l-62 -31 32 -27 c17 -14 44 -36
59 -47 19 -15 31 -37 38 -69 15 -72 33 -77 86 -26 33 31 49 40 64 36 38 -12
115 -18 115 -8 0 5 -13 30 -30 56 -16 26 -30 54 -30 62 0 18 18 52 44 82 28
33 8 52 -49 46 -62 -7 -90 2 -127 42 -42 47 -55 45 -63 -12z"/>
<path d="M11655 8021 c-47 -17 -50 -20 -47 -51 3 -40 -10 -57 -51 -65 -18 -4
-66 -17 -107 -30 -113 -34 -377 -105 -395 -105 -3 0 -11 13 -16 29 -14 39 -32
44 -96 26 -49 -14 -59 -24 -53 -50 1 -5 8 -39 16 -75 7 -36 22 -99 34 -140 12
-41 27 -102 34 -135 7 -33 17 -69 23 -80 6 -11 16 -44 23 -73 7 -29 19 -59 27
-67 23 -23 114 -20 146 5 14 11 46 23 70 26 l45 6 4 51 c5 72 -11 91 -72 83
-26 -4 -55 -4 -63 0 -19 7 -73 164 -65 185 7 18 144 62 178 58 19 -3 32 -19
58 -69 28 -55 38 -66 65 -72 34 -7 84 13 94 38 3 8 -2 45 -11 82 -19 79 -14
89 60 104 97 21 106 18 136 -37 20 -36 28 -64 28 -102 0 -55 1 -54 -67 -68
-18 -4 -35 -11 -38 -16 -9 -13 27 -121 42 -126 7 -3 35 2 61 12 26 9 73 22
105 29 95 22 108 44 71 120 -8 16 -14 44 -14 63 0 19 -11 50 -26 73 -19 28
-24 47 -20 65 4 16 -1 39 -14 65 -11 21 -20 51 -20 65 0 15 -11 50 -25 80 -14
30 -25 67 -23 82 3 24 -1 28 -22 30 -14 1 -47 -6 -75 -16z"/>
<path d="M4896 7957 c-9 -12 -53 -112 -100 -222 -46 -110 -104 -247 -129 -305
-133 -309 -413 -974 -434 -1030 -13 -36 -39 -96 -58 -135 -42 -88 -143 -329
-151 -360 -6 -22 -1 -25 83 -50 48 -15 120 -37 158 -50 39 -13 101 -29 138
-36 59 -11 70 -11 83 3 8 8 37 79 64 157 63 185 70 193 153 170 50 -14 64 -43
48 -101 -40 -148 -61 -241 -61 -271 0 -37 20 -61 60 -70 47 -11 205 -57 250
-73 73 -26 113 -28 131 -7 9 10 22 54 28 98 21 145 29 189 46 260 9 39 19 89
21 113 2 23 6 61 8 85 2 23 13 83 25 132 36 151 41 174 41 208 0 17 7 64 15
102 31 144 45 221 45 252 0 17 5 35 10 38 6 3 10 25 10 48 0 23 11 82 25 132
14 49 25 108 25 131 0 51 36 248 50 274 6 12 8 29 5 40 -3 10 4 55 15 100 13
52 20 105 18 143 l-3 62 -50 17 c-27 9 -131 42 -230 72 -99 31 -207 65 -240
76 -75 25 -81 25 -99 -3z m134 -785 c0 -19 -59 -282 -66 -293 -2 -4 -18 -76
-35 -160 -17 -85 -34 -164 -36 -177 -3 -13 -16 -30 -28 -38 -20 -13 -27 -13
-58 0 -64 26 -64 42 -7 174 29 64 55 133 59 152 4 20 20 56 34 81 15 25 27 57
27 71 0 14 11 46 25 69 14 24 25 50 25 57 0 7 7 28 14 47 16 37 46 48 46 17z"/>
<path d="M5660 7720 c-18 -34 -110 -337 -110 -363 0 -40 22 -57 93 -73 77 -18
127 -53 127 -90 0 -13 -22 -92 -49 -176 -27 -84 -68 -216 -91 -293 -23 -77
-52 -171 -65 -210 -13 -38 -40 -127 -59 -196 -19 -70 -44 -151 -55 -180 -11
-30 -29 -90 -40 -134 -11 -44 -47 -167 -80 -274 -47 -151 -58 -198 -50 -213
12 -23 57 -43 119 -53 24 -4 73 -18 109 -32 87 -33 169 -53 185 -47 17 7 59
101 51 114 -3 5 4 28 16 52 12 23 23 56 25 72 1 17 12 49 23 71 12 21 21 53
21 70 1 16 7 41 15 55 8 14 14 39 15 56 0 16 9 49 20 72 11 22 20 53 20 67 0
14 6 36 14 48 14 20 34 90 56 194 5 24 18 64 29 90 19 49 55 161 111 353 17
58 35 119 41 135 6 17 16 48 21 70 6 22 16 56 24 75 7 19 16 50 19 68 4 18 12
35 19 38 7 3 57 -7 112 -21 54 -14 109 -23 120 -21 16 4 29 27 52 93 18 49 37
111 43 138 7 28 18 62 25 77 20 40 18 105 -3 116 -10 5 -83 28 -163 51 -136
40 -233 70 -540 170 -69 22 -144 43 -167 47 -36 5 -43 3 -53 -16z"/>
<path d="M9836 7421 c-12 -91 -22 -108 -77 -126 -27 -9 -51 -21 -54 -25 -3 -5
12 -18 33 -29 62 -32 92 -74 92 -129 0 -79 14 -85 65 -28 l44 49 65 -6 c63 -6
66 -5 66 16 -1 12 -7 40 -15 62 -19 51 -19 70 0 85 11 9 15 26 13 54 l-3 40
-56 -3 c-53 -2 -78 8 -91 37 -3 8 -63 52 -71 52 -2 0 -7 -22 -11 -49z"/>
<path d="M6707 7413 c-3 -5 -28 -87 -57 -183 -29 -96 -77 -251 -106 -345 -62
-200 -142 -472 -189 -640 -32 -114 -81 -274 -217 -700 -73 -231 -75 -244 -51
-274 18 -22 35 -28 203 -73 41 -10 156 -46 254 -79 251 -84 296 -87 296 -20 0
14 10 46 21 71 11 25 24 65 29 90 5 25 15 63 23 85 8 22 18 60 22 85 l7 45
-86 33 c-48 17 -99 32 -114 32 -42 0 -92 35 -92 64 0 14 20 87 44 163 24 76
50 158 56 183 24 91 32 94 164 51 52 -17 102 -31 111 -31 19 0 54 73 55 113 0
15 8 44 18 65 10 20 29 75 42 121 l24 84 -26 22 c-14 12 -57 30 -96 39 -38 10
-84 26 -102 37 -41 26 -41 24 30 249 38 119 49 135 97 138 27 2 62 -6 103 -23
41 -17 76 -25 103 -23 39 3 43 5 54 43 6 22 28 93 48 158 44 141 51 186 33
208 -12 16 -74 38 -343 123 -60 19 -154 48 -207 65 -97 31 -143 38 -151 24z"/>
<path d="M11847 7233 c-21 -5 -37 -42 -37 -83 0 -15 -7 -30 -15 -34 -8 -3
-132 -20 -276 -37 -188 -24 -266 -30 -277 -22 -10 5 -20 26 -23 44 -7 43 -17
61 -31 53 -5 -4 -33 -9 -62 -13 -50 -6 -51 -7 -54 -42 -2 -20 4 -87 13 -150 9
-63 20 -150 25 -194 12 -107 31 -155 82 -216 59 -71 110 -103 203 -129 76 -22
85 -22 195 -10 63 7 120 16 125 20 6 4 35 15 65 24 87 28 214 142 204 182 -3
11 6 42 20 69 22 46 24 55 15 115 -5 36 -14 112 -20 170 -6 58 -17 127 -24
153 -8 26 -12 54 -8 62 13 36 -50 56 -120 38z m-2 -343 c20 -39 19 -69 -5
-133 -22 -60 -46 -85 -105 -115 -90 -45 -293 -49 -373 -8 -50 26 -90 93 -90
149 1 29 7 52 16 60 8 6 65 18 126 25 61 7 152 17 201 23 50 6 104 14 120 19
63 18 93 12 110 -20z"/>
<path d="M7944 7029 c-3 -6 -17 -48 -29 -93 -12 -44 -36 -126 -53 -181 -68
-220 -236 -776 -264 -875 -16 -58 -51 -177 -77 -265 -27 -88 -69 -232 -95
-320 -25 -88 -60 -200 -76 -250 -36 -108 -38 -140 -9 -156 44 -23 259 -89 292
-89 19 0 39 6 44 13 6 6 25 62 43 122 18 61 39 126 46 145 8 19 23 67 33 105
10 39 26 95 35 125 10 30 21 73 25 95 11 58 39 107 59 103 15 -3 17 -15 14
-93 -2 -50 -8 -139 -12 -200 -22 -260 -33 -463 -27 -479 4 -9 23 -24 43 -32
28 -12 318 -94 332 -94 10 0 35 81 33 111 -1 22 4 41 14 49 8 7 29 58 45 114
17 55 37 122 45 147 8 26 15 58 15 72 0 13 14 54 31 91 17 36 36 99 44 141 7
41 19 82 26 91 7 8 16 34 20 57 4 23 19 78 33 122 14 44 33 103 41 130 9 28
21 68 26 90 6 22 17 60 25 85 9 25 19 65 23 90 4 25 13 55 20 68 6 12 23 64
37 115 14 51 32 110 40 132 8 23 14 53 14 68 0 15 11 50 25 77 14 27 25 58 25
69 0 12 11 54 25 95 14 41 25 88 25 105 0 29 -3 31 -92 59 -260 83 -270 82
-294 -38 -3 -19 -28 -100 -54 -180 -27 -80 -67 -212 -90 -295 -45 -167 -59
-200 -80 -200 -18 0 -18 36 -2 350 27 510 27 477 3 506 -15 20 -42 32 -103 49
-46 12 -112 30 -147 41 -73 22 -87 23 -97 8z"/>
<path d="M9303 6615 c-83 -23 -114 -39 -176 -89 -107 -88 -173 -217 -271 -531
-26 -82 -69 -220 -96 -305 -27 -85 -54 -177 -60 -205 -6 -27 -24 -90 -40 -140
-48 -145 -101 -383 -107 -475 -9 -145 41 -281 142 -381 108 -108 303 -170 438
-140 23 6 59 13 79 16 48 7 135 74 222 170 66 74 82 102 135 250 19 53 62 208
71 256 5 26 18 65 29 87 12 23 21 53 21 67 0 14 9 43 19 64 11 21 30 78 41
127 12 49 30 112 40 139 10 28 21 72 25 98 4 25 13 52 21 58 8 6 14 26 14 44
0 17 8 57 19 87 18 53 48 200 50 246 4 85 -6 167 -30 254 -17 59 -33 91 -72
139 -44 54 -62 67 -143 105 -140 66 -273 87 -371 59z m176 -401 c21 -15 23
-22 17 -68 -7 -50 -59 -236 -136 -486 -22 -69 -48 -162 -60 -208 -25 -101
-122 -397 -143 -437 -8 -17 -20 -57 -27 -90 -23 -111 -61 -175 -106 -175 -37
0 -47 32 -29 92 8 28 15 62 15 75 0 12 18 78 39 145 68 212 101 325 101 342 0
9 5 24 10 34 6 9 21 58 34 107 13 50 29 104 35 120 34 97 81 264 81 290 1 17
7 38 15 48 7 11 17 38 20 60 4 23 21 68 39 99 27 50 38 61 66 67 3 0 16 -6 29
-15z"/>
<path d="M10115 6358 c-10 -31 -35 -138 -44 -193 -5 -33 -28 -145 -50 -250
-22 -104 -45 -217 -51 -250 -6 -33 -20 -98 -30 -145 -47 -220 -93 -445 -135
-665 -25 -132 -55 -287 -67 -345 -58 -292 -61 -340 -20 -340 10 0 38 -6 63
-14 392 -126 398 -128 437 -86 10 11 26 46 36 77 10 32 31 82 47 112 16 30 29
60 29 68 0 8 18 49 40 91 21 42 48 106 59 142 12 36 30 81 42 100 12 19 30 60
39 90 12 41 21 56 37 58 15 2 22 -4 27 -21 7 -29 -2 -83 -18 -112 -6 -11 -12
-40 -13 -65 -1 -25 -8 -85 -16 -135 -8 -49 -20 -128 -26 -175 -7 -47 -18 -130
-26 -185 -9 -55 -15 -110 -15 -122 0 -33 41 -59 132 -82 46 -12 149 -44 230
-71 81 -28 151 -50 156 -50 13 0 32 48 26 64 -3 8 6 34 20 59 14 24 35 70 46
102 11 32 24 63 29 69 5 6 14 31 21 54 6 24 27 77 46 116 19 40 34 79 34 87 0
8 7 23 15 33 8 11 13 28 9 38 -3 10 6 37 21 61 14 24 36 76 49 114 13 39 31
81 39 94 8 13 18 42 22 64 4 22 15 59 26 82 10 23 19 48 19 55 0 7 12 38 26
68 30 61 66 155 94 243 10 32 25 68 33 80 8 12 18 38 22 57 4 19 27 79 51 132
24 54 44 105 44 114 0 10 11 36 24 58 13 23 32 68 41 101 10 33 24 73 32 89
14 28 14 31 -5 47 -12 9 -59 26 -104 39 -46 12 -111 32 -145 46 -68 26 -120
31 -146 12 -9 -7 -30 -49 -46 -93 -28 -75 -41 -110 -121 -310 -18 -44 -45
-114 -61 -155 -35 -94 -135 -344 -154 -387 -15 -35 -39 -43 -49 -18 -3 8 1 34
10 57 8 23 12 48 10 54 -3 7 4 34 14 62 19 49 63 237 75 322 4 25 20 93 36
153 16 59 29 118 29 132 0 14 11 68 25 121 34 130 33 139 -12 163 -50 25 -328
111 -359 111 -30 0 -74 -42 -74 -70 0 -12 -19 -65 -41 -118 -23 -53 -56 -135
-74 -182 -90 -237 -222 -556 -238 -577 -5 -7 -16 -13 -23 -13 -17 0 -9 92 13
155 8 22 18 60 23 85 26 130 41 194 48 204 5 6 9 22 10 35 0 14 6 37 13 53 6
15 9 38 6 49 -3 12 1 36 10 52 8 17 21 64 28 106 7 42 22 112 34 155 34 130
26 156 -54 171 -22 4 -95 24 -163 46 -131 42 -160 46 -167 27z"/>
<path d="M2063 6144 c-3 -9 -3 -82 0 -162 5 -120 14 -187 51 -364 88 -425 165
-676 299 -974 127 -281 200 -412 394 -706 211 -321 557 -700 806 -882 56 -41
125 -95 152 -119 69 -61 127 -101 290 -199 236 -143 511 -289 608 -323 51 -18
150 -56 221 -85 71 -28 206 -71 300 -96 94 -24 195 -51 225 -59 29 -8 140 -28
245 -45 105 -16 228 -37 273 -45 113 -20 675 -14 843 10 63 8 153 20 200 25
47 5 133 20 190 34 58 13 125 27 150 30 25 4 79 18 120 31 41 14 134 42 205
64 72 21 193 63 270 94 173 68 538 244 625 302 36 24 106 67 155 97 88 53 393
282 508 382 108 94 271 260 413 421 78 88 156 173 173 189 78 74 -14 138 -119
84 -39 -20 -47 -30 -65 -81 -18 -51 -38 -76 -194 -233 -494 -499 -965 -811
-1591 -1053 -683 -264 -1380 -336 -2106 -216 -222 36 -377 71 -521 115 -70 22
-166 52 -213 66 -105 33 -319 126 -381 165 -25 16 -50 29 -56 29 -6 0 -26 13
-46 29 -20 15 -54 31 -76 35 -22 3 -52 17 -68 30 -15 13 -46 29 -68 35 -22 7
-51 25 -65 40 -14 15 -76 54 -138 86 -73 38 -139 81 -185 122 -104 92 -253
214 -295 243 -51 35 -259 244 -362 364 -47 54 -104 119 -126 145 -23 25 -58
73 -77 106 -19 33 -76 114 -127 180 -95 123 -133 187 -144 241 -4 17 -19 42
-33 55 -14 13 -48 71 -75 129 -27 58 -60 118 -72 135 -13 16 -26 44 -30 60 -4
17 -25 69 -47 117 -22 48 -43 104 -46 125 -3 21 -23 74 -45 118 -24 50 -44
110 -53 160 -8 44 -23 106 -35 138 -40 113 -91 361 -106 517 -19 203 -39 281
-75 300 -28 15 -69 12 -76 -6z"/>
<path d="M2255 6038 c52 -508 173 -949 381 -1399 81 -175 161 -318 282 -509
58 -91 138 -217 179 -281 63 -99 85 -125 153 -179 44 -34 141 -128 216 -209
164 -176 256 -259 349 -314 39 -23 132 -90 207 -149 148 -115 227 -165 319
-203 33 -13 85 -39 117 -58 164 -99 414 -201 697 -286 274 -82 537 -134 825
-163 184 -19 621 -16 800 6 611 73 1183 266 1677 565 117 71 430 295 578 415
96 77 260 235 376 361 30 33 71 75 91 93 40 37 65 81 70 127 6 59 -26 41 -118
-67 -646 -758 -1578 -1271 -2555 -1407 -789 -110 -1589 21 -2334 384 -544 265
-1074 708 -1447 1210 -347 466 -597 1022 -723 1609 -13 61 -31 136 -40 166 -9
32 -15 87 -14 130 3 151 1 159 -30 191 -16 16 -37 29 -46 29 -15 0 -16 -8 -10
-62z"/>
<path d="M1074 6015 c-101 -25 -130 -39 -211 -95 -111 -77 -173 -199 -173
-340 0 -188 82 -330 228 -397 91 -41 175 -45 252 -12 50 22 86 61 74 81 -4 6
-8 30 -10 52 -4 60 -21 157 -33 189 -10 25 -15 27 -65 27 -30 0 -66 -4 -80
-10 -22 -8 -26 -16 -26 -53 0 -75 -48 -91 -105 -34 -28 28 -34 42 -40 101 -7
62 -5 72 21 124 40 77 95 114 214 141 110 25 154 26 217 5 66 -22 112 -59 134
-108 41 -89 14 -185 -72 -258 -44 -37 -49 -45 -49 -82 0 -23 7 -52 16 -64 21
-30 84 -29 205 2 52 13 105 26 119 28 23 3 25 6 22 53 -3 49 -26 85 -64 97
-10 4 -9 12 4 42 30 62 33 136 10 208 -12 35 -24 75 -27 90 -3 15 -25 51 -48
80 -54 67 -158 122 -270 143 -102 19 -134 18 -243 -10z"/>
<path d="M2805 5320 c-9 -17 -14 -34 -11 -39 3 -4 1 -24 -5 -45 -8 -29 -22
-44 -70 -74 -32 -20 -59 -40 -59 -44 0 -10 75 -48 93 -48 23 0 46 -33 53 -78
3 -23 12 -50 20 -59 12 -17 17 -14 63 31 50 49 50 49 118 50 67 1 68 2 71 29
2 17 -7 46 -23 73 -27 46 -27 46 -10 84 10 22 24 41 31 44 8 3 14 13 14 22 0
14 -10 15 -80 9 -79 -7 -80 -7 -122 26 -24 18 -48 37 -55 42 -8 6 -17 -2 -28
-23z"/>
<path d="M1335 5149 c-200 -47 -323 -138 -402 -297 -74 -151 -18 -401 115
-506 130 -104 354 -129 507 -56 33 16 72 31 86 34 44 10 177 132 201 184 11
26 28 61 37 77 12 23 16 55 14 144 -1 100 -5 120 -26 160 -14 25 -30 63 -36
83 -16 50 -60 86 -173 141 -94 46 -97 47 -189 46 -52 -1 -112 -5 -134 -10z
m277 -256 c52 -31 59 -39 73 -86 27 -95 -8 -168 -110 -236 -87 -57 -158 -82
-247 -88 -64 -5 -83 -2 -120 16 -65 31 -103 75 -104 119 -1 20 -5 51 -9 67 -6
29 -1 36 73 107 97 92 143 118 242 134 97 16 132 10 202 -33z"/>
<path d="M3136 4644 c-3 -9 -6 -35 -6 -58 0 -54 -19 -80 -86 -118 -62 -35 -60
-47 11 -78 54 -23 74 -48 90 -110 20 -75 31 -82 64 -42 16 18 43 44 62 58 30
22 41 24 85 18 60 -7 74 5 50 41 -9 13 -16 31 -16 40 0 9 -7 30 -16 47 -15 28
-14 31 6 53 22 24 30 79 13 96 -6 6 -28 3 -62 -7 -53 -15 -54 -15 -80 9 -14
14 -45 34 -68 46 -36 18 -42 18 -47 5z"/>
<path d="M1990 4029 c-161 -19 -247 -58 -389 -179 -83 -70 -151 -211 -151
-316 0 -124 48 -269 100 -302 11 -7 20 -19 20 -27 0 -8 13 -21 29 -29 16 -9
42 -26 57 -39 16 -14 65 -34 108 -46 93 -26 166 -23 240 8 26 12 60 21 76 21
15 0 33 7 40 15 7 8 18 15 24 15 18 0 229 199 253 239 12 20 23 46 23 59 0 13
7 46 17 74 14 43 14 58 4 100 -7 27 -10 59 -7 72 14 55 -146 263 -225 294 -84
34 -134 52 -139 51 -3 -1 -39 -5 -80 -10z m115 -229 c4 -6 24 -19 45 -30 56
-29 73 -67 68 -156 -3 -62 -8 -79 -34 -116 -40 -55 -110 -109 -201 -155 -69
-34 -77 -36 -144 -30 -124 10 -169 57 -169 175 0 54 4 70 30 108 28 40 114
115 199 174 22 15 46 23 70 22 20 -1 50 2 66 7 41 13 63 13 70 1z"/>
<path d="M3606 3988 c-17 -111 -13 -104 -76 -144 -32 -22 -59 -44 -60 -50 0
-20 36 -44 67 -44 38 0 48 -12 71 -86 10 -33 24 -60 33 -62 8 -1 33 15 55 36
34 33 49 40 94 44 30 3 65 1 78 -5 43 -20 47 6 9 61 -31 44 -35 55 -30 93 3
24 11 51 19 59 7 8 16 27 19 43 7 25 5 27 -21 27 -16 0 -48 -5 -72 -10 -48
-11 -66 -5 -120 41 -43 38 -60 37 -66 -3z"/>
<path d="M8556 3702 c-3 -5 -9 -34 -14 -65 -10 -64 -29 -90 -87 -119 l-39 -21
23 -16 c70 -49 99 -83 116 -136 9 -30 20 -57 25 -60 4 -2 30 18 58 45 49 47
54 50 105 50 70 0 85 15 61 62 -9 18 -22 40 -30 48 -11 13 -8 25 17 79 19 40
27 67 21 73 -6 6 -31 6 -66 -1 -64 -12 -84 -6 -140 38 -43 35 -43 34 -50 23z"/>
<path d="M4207 3543 c-3 -5 -8 -28 -11 -53 -12 -74 -26 -98 -77 -130 -50 -31
-62 -56 -31 -67 9 -4 36 -19 59 -35 35 -24 45 -38 59 -83 16 -56 31 -67 55
-39 7 9 31 28 54 44 37 26 45 27 113 22 48 -3 72 -1 72 6 0 11 -33 77 -60 119
-12 19 -12 26 0 50 8 15 20 36 28 45 7 9 12 27 10 40 -3 25 -6 25 -104 12 -47
-6 -54 -4 -85 23 -42 37 -76 56 -82 46z"/>
<path d="M2588 3389 c-10 -5 -31 -30 -48 -54 -29 -43 -30 -46 -15 -74 8 -17
15 -38 15 -49 0 -10 -31 -48 -68 -83 -37 -35 -130 -122 -205 -194 -75 -71
-144 -133 -153 -138 -13 -7 -24 -2 -46 22 -16 17 -34 31 -40 31 -20 0 -108
-99 -108 -122 0 -13 24 -46 65 -85 35 -35 72 -77 81 -92 18 -30 62 -61 88 -61
9 0 35 18 57 39 42 39 42 40 36 94 l-7 54 63 59 c157 149 227 200 227 163 0
-15 -52 -160 -90 -249 -18 -41 -38 -96 -46 -122 -8 -26 -28 -76 -44 -110 -32
-67 -37 -106 -19 -141 19 -36 82 -97 101 -97 26 0 101 54 120 88 10 16 37 46
60 67 24 21 112 105 197 186 84 81 170 156 189 165 36 17 36 17 57 -10 19 -24
28 -27 66 -24 37 2 44 0 47 -17 3 -11 15 -33 28 -51 13 -17 24 -40 24 -51 0
-20 -228 -333 -310 -425 -44 -50 -77 -61 -100 -33 -18 22 -35 18 -70 -16 -40
-41 -63 -85 -55 -110 7 -21 83 -99 97 -99 12 0 107 -68 153 -110 22 -20 74
-58 115 -84 41 -27 99 -69 128 -94 69 -58 79 -53 157 69 32 52 87 127 122 167
80 92 82 114 15 160 -27 17 -57 32 -68 32 -23 0 -67 -43 -111 -110 -17 -25
-42 -58 -57 -73 -22 -24 -29 -26 -48 -16 -34 17 -118 101 -118 117 0 8 16 32
35 53 19 22 35 45 35 53 0 21 77 134 100 146 11 6 38 37 60 70 22 33 58 78 79
100 37 39 42 41 93 39 66 -3 90 10 113 57 23 48 14 76 -37 115 -24 18 -64 51
-89 73 -25 23 -83 63 -128 90 -79 48 -160 124 -259 243 -71 86 -88 88 -164 15
-42 -39 -46 -60 -22 -97 20 -30 11 -60 -24 -82 -15 -9 -54 -45 -87 -80 -33
-35 -68 -63 -78 -63 -22 0 -34 29 -17 40 15 9 40 75 40 105 0 11 7 31 16 44 9
12 25 48 35 79 10 32 34 102 53 157 l35 100 -47 55 c-88 103 -168 180 -187
180 -11 0 -28 -5 -37 -11z"/>
<path d="M7897 3303 c-3 -5 -8 -33 -12 -63 -5 -42 -14 -63 -38 -87 -17 -18
-36 -33 -42 -33 -7 0 -20 -9 -30 -20 -17 -19 -16 -20 36 -43 67 -29 72 -36 94
-119 10 -39 23 -68 31 -68 7 0 23 14 36 31 54 72 69 82 119 76 30 -4 53 -1 64
7 16 11 15 17 -14 74 -28 56 -30 64 -17 85 7 12 17 42 20 66 l7 43 -33 -6
c-114 -20 -115 -20 -134 8 -9 15 -30 34 -45 42 -32 16 -36 17 -42 7z"/>
<path d="M9724 3193 c-43 -49 -138 -149 -210 -223 -72 -74 -137 -145 -143
-158 -6 -12 -68 -59 -137 -103 -68 -45 -129 -89 -133 -98 -11 -19 28 -108 56
-128 9 -7 34 -13 55 -13 45 0 43 3 108 -177 73 -201 68 -223 -32 -141 -112 92
-197 170 -203 186 -3 9 2 31 11 48 l18 32 -42 56 c-24 31 -49 56 -57 56 -8 0
-63 -38 -123 -84 -123 -95 -198 -145 -274 -181 -129 -61 -273 -144 -291 -167
-19 -25 -19 -26 1 -71 24 -55 54 -74 89 -58 34 16 38 15 77 -19 21 -19 44 -55
60 -96 15 -36 46 -100 70 -142 68 -120 116 -220 116 -239 -1 -10 -14 -34 -30
-53 -41 -47 -39 -83 9 -142 18 -22 62 -23 104 -2 55 28 147 87 147 94 0 5 71
37 122 54 40 13 32 83 -17 139 -21 23 -32 27 -78 27 -69 0 -64 -7 -176 210
-103 199 -119 233 -126 266 -6 30 -2 35 54 78 99 77 124 79 196 22 22 -18 68
-51 102 -74 34 -23 92 -68 130 -100 37 -32 111 -91 163 -130 52 -39 106 -81
120 -92 46 -37 80 -36 133 6 56 43 57 55 21 150 -15 38 -35 96 -46 129 -11 33
-29 83 -42 110 -35 76 -117 336 -123 388 -5 39 -2 49 20 71 14 14 24 33 23 43
0 10 7 19 19 21 11 2 28 13 38 23 22 23 20 23 60 3 43 -23 363 -341 378 -375
8 -21 8 -37 0 -60 -14 -41 -2 -62 57 -100 49 -31 72 -36 72 -18 0 7 49 62 110
123 60 61 123 130 139 153 17 23 41 49 55 58 13 9 26 25 29 35 3 11 12 20 20
20 9 0 27 19 41 42 l25 42 -42 50 c-66 80 -124 133 -153 140 -22 6 -34 1 -65
-30 -22 -21 -39 -44 -39 -52 0 -8 14 -27 30 -42 43 -40 39 -69 -17 -132 -56
-64 -68 -72 -98 -64 -30 8 -85 54 -85 71 0 7 -7 18 -15 25 -22 18 -18 63 8 94
12 14 30 39 39 54 15 25 15 31 1 60 -15 32 -68 72 -94 72 -7 0 -31 -18 -54
-40 -22 -22 -55 -42 -73 -46 -29 -6 -37 -2 -82 43 -29 30 -50 59 -50 72 0 12
17 40 38 61 20 22 45 49 55 60 24 28 57 25 104 -9 44 -32 55 -30 106 17 44 42
37 68 -40 143 -80 78 -110 99 -139 99 -14 0 -48 -30 -100 -87z"/>
<path d="M4906 3192 c-3 -5 -8 -33 -12 -63 -8 -70 -23 -92 -84 -125 -27 -15
-50 -30 -50 -33 0 -3 28 -21 61 -39 62 -35 89 -72 89 -125 0 -13 6 -32 14 -42
13 -18 17 -16 80 39 60 54 69 58 101 52 23 -5 45 -2 66 9 27 15 29 18 17 33
-8 9 -25 34 -37 56 -23 41 -21 55 19 128 13 24 13 45 -1 50 -6 2 -42 0 -80 -5
l-69 -10 -40 42 c-38 39 -63 50 -74 33z"/>
<path d="M7170 2973 c0 -59 -25 -103 -80 -139 -22 -15 -40 -33 -40 -41 0 -8
25 -25 55 -39 61 -28 75 -46 75 -96 0 -19 5 -39 12 -46 17 -17 58 -15 58 2 0
8 12 29 27 46 22 26 32 31 57 27 17 -2 39 -1 48 4 10 6 27 5 42 -3 15 -6 29
-8 33 -5 8 9 -35 97 -47 97 -15 0 -5 94 13 120 9 13 17 33 17 44 0 19 -21 20
-115 1 -25 -5 -40 1 -84 34 -30 23 -58 41 -63 41 -4 0 -8 -21 -8 -47z"/>
<path d="M5636 2948 c-3 -13 -7 -41 -10 -63 -5 -40 -30 -70 -102 -121 -25 -19
-27 -23 -15 -38 8 -9 33 -21 57 -27 54 -14 61 -22 77 -95 12 -52 16 -59 40
-62 18 -2 27 1 27 10 0 8 15 28 33 46 30 30 38 32 100 32 60 0 67 2 67 20 0
11 -9 34 -20 52 -25 42 -25 91 0 147 28 61 27 65 -22 57 -119 -19 -110 -20
-162 23 -56 47 -64 49 -70 19z"/>
<path d="M6414 2873 c-19 -88 -30 -108 -79 -145 -27 -21 -50 -42 -50 -48 0 -6
27 -25 60 -44 44 -24 61 -39 63 -57 1 -13 10 -44 19 -67 13 -37 19 -43 37 -38
11 3 24 6 29 6 4 0 7 9 7 19 0 11 14 31 31 45 26 22 40 26 95 26 70 0 90 15
61 48 -8 9 -24 34 -36 55 -19 34 -20 40 -6 53 8 9 15 21 15 28 0 7 7 27 16 45
9 18 12 36 8 41 -5 4 -42 3 -82 -3 -71 -10 -74 -9 -100 15 -25 24 -64 48 -76
48 -3 0 -8 -12 -12 -27z"/>
<path d="M3822 2247 c-38 -63 -40 -91 -8 -112 13 -9 29 -29 36 -45 11 -27 9
-35 -29 -95 -23 -36 -46 -78 -52 -93 -6 -15 -25 -49 -42 -77 -18 -27 -57 -94
-87 -149 -60 -109 -69 -116 -131 -96 -31 11 -41 11 -54 0 -20 -16 -65 -103
-65 -124 0 -20 72 -80 125 -105 24 -11 46 -25 50 -31 3 -5 14 -10 23 -10 9 0
47 -20 84 -46 66 -45 67 -45 97 -29 36 18 81 81 81 112 0 22 -35 63 -53 63
-18 0 1 81 27 119 14 20 26 44 26 53 0 9 16 37 35 62 19 26 35 53 35 61 0 8 4
15 9 15 5 0 12 13 16 29 3 17 21 49 38 73 33 44 58 85 76 126 12 25 18 26 76
12 22 -5 47 -7 56 -4 19 5 62 124 54 145 -3 8 -33 28 -67 44 -34 17 -83 44
-109 62 -54 37 -174 93 -198 93 -9 0 -31 -23 -49 -53z"/>
<path d="M4277 2032 c-44 -48 -52 -135 -15 -159 7 -4 21 -18 31 -29 18 -21 17
-24 -22 -117 -23 -52 -41 -99 -41 -105 0 -6 -27 -80 -60 -164 -67 -171 -84
-193 -141 -184 -31 5 -39 2 -53 -19 -9 -13 -21 -45 -28 -70 -12 -44 -11 -47
12 -65 13 -10 66 -33 117 -50 51 -18 96 -36 99 -41 9 -15 68 -10 92 7 58 40
68 116 21 157 -22 19 -29 32 -24 45 4 9 11 35 14 57 4 22 19 61 34 86 15 25
27 57 27 70 0 14 5 30 11 36 6 6 19 35 29 65 19 59 44 74 54 33 4 -14 11 -99
16 -188 22 -360 29 -446 38 -464 11 -21 146 -77 166 -70 7 3 30 49 51 104 21
54 48 122 61 152 13 29 24 58 24 63 0 6 11 36 24 67 14 31 45 110 71 176 67
175 72 185 94 185 11 0 23 -4 26 -10 10 -16 41 -11 60 10 26 29 51 25 63 -9 6
-17 24 -37 41 -46 17 -8 31 -22 31 -30 0 -17 -72 -386 -95 -493 -18 -76 -31
-92 -80 -92 -31 0 -44 -29 -52 -112 l-6 -56 39 -11 c22 -6 50 -11 64 -11 14 0
38 -9 54 -19 22 -15 34 -17 48 -10 13 7 30 7 51 0 18 -5 66 -13 107 -17 41 -3
93 -13 115 -21 22 -8 67 -18 100 -23 33 -5 69 -12 81 -15 24 -8 44 27 44 78 0
18 4 37 9 43 13 13 31 144 24 176 -8 40 -25 49 -89 46 l-57 -3 -12 -48 c-19
-76 -29 -81 -112 -64 -121 25 -134 41 -108 134 34 121 52 139 120 114 71 -25
119 -6 117 49 0 17 3 43 8 56 13 32 -15 61 -67 69 -98 15 -98 15 -97 76 1 30
8 72 16 94 12 36 16 40 43 37 17 -2 54 -5 84 -6 72 -5 91 -26 91 -106 0 -64 6
-70 81 -70 61 0 74 20 100 159 l23 123 -22 18 c-12 10 -41 21 -65 25 -56 9
-184 34 -227 45 -19 5 -75 14 -125 20 -228 29 -327 55 -532 136 -89 35 -95 33
-122 -34 -28 -72 -25 -102 12 -120 34 -16 36 -57 6 -122 -12 -25 -29 -70 -39
-100 -13 -39 -23 -56 -37 -58 -39 -6 -47 22 -51 181 -2 83 -8 159 -13 168 -5
10 -9 46 -9 81 0 42 -5 71 -16 86 -18 27 -70 54 -140 75 -28 8 -65 22 -82 31
-41 21 -85 20 -105 -2z m863 -320 c0 -27 -15 -52 -32 -52 -9 0 -11 41 -2 64
10 27 34 19 34 -12z"/>
<path d="M8110 2003 c-33 -6 -60 -31 -60 -56 0 -18 -5 -19 -59 -14 -113 12
-236 -39 -327 -135 -75 -79 -97 -143 -102 -293 -3 -116 -2 -123 32 -225 43
-123 51 -137 130 -215 72 -72 176 -129 217 -121 16 3 42 0 59 -6 23 -8 35 -7
43 1 6 6 24 11 40 11 36 0 181 67 224 104 17 15 53 65 79 113 46 85 46 86 46
182 0 53 -2 120 -5 149 -5 60 -30 96 -62 89 -65 -16 -282 -100 -298 -116 -18
-18 -19 -21 -3 -69 9 -27 26 -58 36 -67 17 -15 24 -16 50 -5 84 35 81 -90 -4
-148 -74 -51 -146 -46 -227 14 -56 41 -121 139 -113 171 3 11 -2 37 -10 58
-27 63 -21 152 14 222 39 78 62 93 148 95 84 2 119 -8 159 -43 45 -39 66 -43
124 -24 44 15 50 20 44 39 -3 11 -12 44 -19 71 -7 28 -20 62 -30 77 -10 16
-23 54 -30 85 -10 55 -13 58 -41 59 -16 1 -41 0 -55 -3z"/>
<path d="M6524 1627 c-96 -39 -138 -108 -133 -220 3 -55 10 -80 27 -104 34
-48 28 -67 -38 -132 -76 -75 -112 -148 -118 -246 -4 -65 -2 -76 32 -145 48
-100 51 -103 131 -139 64 -29 76 -31 135 -25 51 5 75 14 110 39 25 17 64 42
87 55 46 26 60 23 116 -22 19 -16 39 -22 70 -20 23 0 57 1 75 1 18 1 46 7 61
15 25 13 29 22 34 78 7 76 -6 93 -67 83 -34 -5 -41 -2 -72 30 -40 43 -41 59
-12 144 23 64 60 105 103 113 16 3 19 12 20 71 0 53 -3 71 -15 77 -19 10 -137
1 -162 -12 -10 -4 -33 -41 -51 -81 -19 -39 -41 -78 -50 -85 -14 -12 -19 -8
-42 29 -47 73 -51 95 -23 137 82 128 84 135 64 212 -17 69 -37 102 -77 133
-32 23 -160 33 -205 14z m128 -162 c17 -38 0 -79 -35 -83 -23 -3 -30 2 -42 33
-20 47 -7 75 36 75 22 0 32 -6 41 -25z m-66 -412 c68 -100 95 -148 92 -167 -2
-12 -21 -29 -51 -44 -62 -32 -99 -23 -144 37 -45 58 -45 110 -2 169 40 55 70
56 105 5z"/>
</g>
</svg>
